<svg width="34" height="34" viewBox="0 0 34 34" fill="none" xmlns="http://www.w3.org/2000/svg">
<path fill-rule="evenodd" clip-rule="evenodd" d="M16.923 6.34616C14.1178 6.34616 11.4276 7.46051 9.44401 9.44407C7.46045 11.4276 6.3461 14.1179 6.3461 16.9231V26.4423H4.23071V16.9231C4.23071 15.2563 4.55901 13.6058 5.19686 12.0659C5.83471 10.526 6.76961 9.12685 7.9482 7.94826C9.12679 6.76968 10.526 5.83477 12.0659 5.19692C13.6058 4.55907 15.2562 4.23077 16.923 4.23077C18.5898 4.23077 20.2403 4.55907 21.7802 5.19692C23.3201 5.83477 24.7192 6.76968 25.8978 7.94826C27.0764 9.12685 28.0113 10.526 28.6492 12.0659C29.287 13.6058 29.6153 15.2563 29.6153 16.9231V26.4423H27.4999V16.9231C27.4999 14.1179 26.3856 11.4276 24.402 9.44407C22.4185 7.46051 19.7282 6.34616 16.923 6.34616Z" fill="#161616"/>
<path d="M23.2692 21.1538C23.2692 20.5928 23.492 20.0547 23.8888 19.658C24.2855 19.2613 24.8235 19.0385 25.3846 19.0385H29.6153V27.5C29.6153 28.061 29.3925 28.5991 28.9957 28.9958C28.599 29.3925 28.061 29.6154 27.4999 29.6154H25.3846C24.8235 29.6154 24.2855 29.3925 23.8888 28.9958C23.492 28.5991 23.2692 28.061 23.2692 27.5V21.1538ZM10.5769 21.1538C10.5769 20.5928 10.354 20.0547 9.95728 19.658C9.56057 19.2613 9.02252 19.0385 8.46148 19.0385H4.23071V27.5C4.23071 28.061 4.45358 28.5991 4.85029 28.9958C5.24701 29.3925 5.78506 29.6154 6.3461 29.6154H8.46148C9.02252 29.6154 9.56057 29.3925 9.95728 28.9958C10.354 28.5991 10.5769 28.061 10.5769 27.5V21.1538Z" fill="#161616"/>
</svg>
