<svg width="173" height="173" viewBox="0 0 173 173" fill="none" xmlns="http://www.w3.org/2000/svg">
<path d="M64.8748 84.6979C59.9011 84.6979 55.8644 88.7345 55.8644 93.7083C55.8644 98.682 59.9011 102.719 64.8748 102.719C69.8486 102.719 73.8853 98.682 73.8853 93.7083C73.8853 88.7345 69.8486 84.6979 64.8748 84.6979ZM108.125 84.6979C103.151 84.6979 99.1144 88.7345 99.1144 93.7083C99.1144 98.682 103.151 102.719 108.125 102.719C113.099 102.719 117.135 98.682 117.135 93.7083C117.135 88.7345 113.099 84.6979 108.125 84.6979ZM86.4998 14.4166C46.7098 14.4166 14.4165 46.71 14.4165 86.5C14.4165 126.29 46.7098 158.583 86.4998 158.583C126.29 158.583 158.583 126.29 158.583 86.5C158.583 46.71 126.29 14.4166 86.4998 14.4166ZM86.4998 144.167C54.7111 144.167 28.8332 118.289 28.8332 86.5C28.8332 84.4095 28.9773 82.3191 29.1936 80.3008C46.2053 72.732 59.6848 58.82 66.749 41.592C79.7961 60.0454 101.277 72.0833 125.569 72.0833C131.192 72.0833 136.598 71.4345 141.788 70.2091C143.302 75.327 144.167 80.8054 144.167 86.5C144.167 118.289 118.289 144.167 86.4998 144.167Z" fill="#323232"/>
</svg>
