<svg width="24" height="25" viewBox="0 0 24 25" fill="none" xmlns="http://www.w3.org/2000/svg">
<path d="M22.227 12.757L20.0229 7.63195C19.9667 7.49962 19.8726 7.38671 19.7524 7.30729C19.6322 7.22787 19.4912 7.18546 19.347 7.18534H17.1429V5.72104C17.1429 5.52686 17.0655 5.34064 16.9277 5.20333C16.79 5.06603 16.6031 4.98889 16.4082 4.98889H2.44905C2.2542 4.98889 2.06732 5.06603 1.92954 5.20333C1.79176 5.34064 1.71436 5.52686 1.71436 5.72104V18.1676C1.71436 18.3618 1.79176 18.548 1.92954 18.6853C2.06732 18.8226 2.2542 18.8997 2.44905 18.8997H4.02129C4.19048 19.5201 4.55983 20.0678 5.07234 20.4583C5.58486 20.8488 6.21208 21.0603 6.85721 21.0603C7.50235 21.0603 8.12956 20.8488 8.64208 20.4583C9.1546 20.0678 9.52394 19.5201 9.69313 18.8997H14.307C14.4762 19.5201 14.8455 20.0678 15.3581 20.4583C15.8706 20.8488 16.4978 21.0603 17.1429 21.0603C17.7881 21.0603 18.4153 20.8488 18.9278 20.4583C19.4403 20.0678 19.8097 19.5201 19.9788 18.8997H21.5511C21.7459 18.8997 21.9328 18.8226 22.0706 18.6853C22.2084 18.548 22.2858 18.3618 22.2858 18.1676V13.0425C22.2856 12.9444 22.2656 12.8473 22.227 12.757ZM17.1429 8.64964H18.8621L20.4344 12.3104H17.1429V8.64964ZM6.85721 19.6319C6.56659 19.6319 6.2825 19.546 6.04086 19.3851C5.79922 19.2242 5.61089 18.9955 5.49968 18.728C5.38846 18.4604 5.35936 18.166 5.41606 17.8819C5.47275 17.5979 5.6127 17.337 5.8182 17.1322C6.0237 16.9274 6.28552 16.7879 6.57055 16.7314C6.85558 16.6749 7.15103 16.7039 7.41952 16.8148C7.68802 16.9256 7.9175 17.1133 8.07896 17.3541C8.24042 17.5949 8.3266 17.878 8.3266 18.1676C8.3266 18.556 8.17179 18.9284 7.89623 19.203C7.62066 19.4776 7.24692 19.6319 6.85721 19.6319ZM14.307 17.4354H9.69313C9.52394 16.815 9.1546 16.2674 8.64208 15.8769C8.12956 15.4864 7.50235 15.2749 6.85721 15.2749C6.21208 15.2749 5.58486 15.4864 5.07234 15.8769C4.55983 16.2674 4.19048 16.815 4.02129 17.4354H3.18374V6.45319H15.6735V15.649C15.339 15.8425 15.0461 16.0999 14.8116 16.4065C14.5771 16.713 14.4056 17.0627 14.307 17.4354ZM17.1429 19.6319C16.8523 19.6319 16.5682 19.546 16.3266 19.3851C16.0849 19.2242 15.8966 18.9955 15.7854 18.728C15.6742 18.4604 15.6451 18.166 15.7018 17.8819C15.7585 17.5979 15.8984 17.337 16.1039 17.1322C16.3094 16.9274 16.5712 16.7879 16.8563 16.7314C17.1413 16.6749 17.4367 16.7039 17.7052 16.8148C17.9737 16.9256 18.2032 17.1133 18.3647 17.3541C18.5261 17.5949 18.6123 17.878 18.6123 18.1676C18.6123 18.556 18.4575 18.9284 18.1819 19.203C17.9064 19.4776 17.5326 19.6319 17.1429 19.6319ZM20.8164 17.4354H19.9788C19.8164 16.8084 19.4499 16.2527 18.9368 15.8552C18.4237 15.4578 17.7928 15.2411 17.1429 15.239V13.7747H20.8164V17.4354Z" fill="#161616"/>
</svg>
