<svg width="32" height="32" viewBox="0 0 32 32" fill="none" xmlns="http://www.w3.org/2000/svg">
<path fill-rule="evenodd" clip-rule="evenodd" d="M23.7078 8.29196C23.8009 8.38485 23.8748 8.4952 23.9252 8.61669C23.9756 8.73818 24.0016 8.86842 24.0016 8.99996C24.0016 9.13149 23.9756 9.26173 23.9252 9.38322C23.8748 9.50471 23.8009 9.61507 23.7078 9.70796L9.7078 23.708C9.52003 23.8957 9.26535 24.0012 8.9998 24.0012C8.73425 24.0012 8.47957 23.8957 8.2918 23.708C8.10402 23.5202 7.99854 23.2655 7.99854 23C7.99854 22.7344 8.10402 22.4797 8.2918 22.292L22.2918 8.29196C22.3847 8.19883 22.495 8.12494 22.6165 8.07453C22.738 8.02412 22.8683 7.99817 22.9998 7.99817C23.1313 7.99817 23.2616 8.02412 23.3831 8.07453C23.5046 8.12494 23.6149 8.19883 23.7078 8.29196Z" fill="#161616"/>
<path fill-rule="evenodd" clip-rule="evenodd" d="M8.29183 8.29196C8.19871 8.38485 8.12482 8.4952 8.07441 8.61669C8.024 8.73818 7.99805 8.86842 7.99805 8.99996C7.99805 9.13149 8.024 9.26173 8.07441 9.38322C8.12482 9.50471 8.19871 9.61507 8.29183 9.70796L22.2918 23.708C22.4796 23.8957 22.7343 24.0012 22.9998 24.0012C23.2654 24.0012 23.5201 23.8957 23.7078 23.708C23.8956 23.5202 24.0011 23.2655 24.0011 23C24.0011 22.7344 23.8956 22.4797 23.7078 22.292L9.70783 8.29196C9.61494 8.19883 9.50459 8.12494 9.3831 8.07453C9.26161 8.02412 9.13137 7.99817 8.99983 7.99817C8.8683 7.99817 8.73806 8.02412 8.61657 8.07453C8.49508 8.12494 8.38473 8.19883 8.29183 8.29196Z" fill="#161616"/>
</svg>
