<svg width="65" height="65" viewBox="0 0 65 65" fill="none" xmlns="http://www.w3.org/2000/svg">
<rect width="65" height="65" rx="4" fill="white"/>
<g clip-path="url(#clip0)">
<path d="M55.0001 32.5283C55.0001 30.9648 54.8708 29.3929 54.5949 27.8547H32.4614V36.7116H45.1362C44.6103 39.5681 42.9203 42.095 40.4457 43.7008V49.4476H48.0074C52.4479 45.4417 55.0001 39.5259 55.0001 32.5283Z" fill="#4285F4"/>
<path d="M32.4611 55C38.7899 55 44.1271 52.9633 48.0158 49.4476L40.454 43.7008C38.3502 45.1037 35.6342 45.8981 32.4698 45.8981C26.3479 45.8981 21.1573 41.8499 19.2949 36.4073H11.4917V42.3317C15.4752 50.0983 23.5888 55 32.4611 55Z" fill="#34A853"/>
<path d="M19.2863 36.4074C18.3034 33.5508 18.3034 30.4577 19.2863 27.6012V21.6769H11.4918C8.16355 28.1759 8.16355 35.8327 11.4918 42.3317L19.2863 36.4074Z" fill="#FBBC04"/>
<path d="M32.4611 18.1019C35.8066 18.0512 39.04 19.2851 41.4628 21.55L48.1624 14.9834C43.9202 11.079 38.2898 8.93235 32.4611 8.99996C23.5888 8.99996 15.4752 13.9017 11.4917 21.6768L19.2863 27.6011C21.1401 22.1501 26.3393 18.1019 32.4611 18.1019Z" fill="#EA4335"/>
</g>
<defs>
<clipPath id="clip0">
<rect width="46" height="46" fill="white" transform="translate(9 9)"/>
</clipPath>
</defs>
</svg>
