<svg width="46" height="46" viewBox="0 0 46 46" fill="none" xmlns="http://www.w3.org/2000/svg">
<g clip-path="url(#clip0)">
<path d="M46.0001 23.5283C46.0001 21.9648 45.8708 20.3929 45.5949 18.8547H23.4614V27.7116H36.1362C35.6103 30.5681 33.9203 33.095 31.4457 34.7008V40.4476H39.0074C43.4479 36.4417 46.0001 30.5259 46.0001 23.5283Z" fill="#4285F4"/>
<path d="M23.4611 46C29.7899 46 35.1271 43.9633 39.0158 40.4476L31.454 34.7008C29.3502 36.1037 26.6342 36.8981 23.4698 36.8981C17.3479 36.8981 12.1573 32.8499 10.2949 27.4073H2.4917V33.3317C6.4752 41.0983 14.5888 46 23.4611 46Z" fill="#34A853"/>
<path d="M10.2863 27.4074C9.30339 24.5508 9.30339 21.4577 10.2863 18.6012V12.6769H2.49176C-0.836447 19.1759 -0.836447 26.8327 2.49176 33.3317L10.2863 27.4074Z" fill="#FBBC04"/>
<path d="M23.4611 9.10193C26.8066 9.05122 30.04 10.2851 32.4628 12.55L39.1624 5.98343C34.9202 2.07896 29.2898 -0.0676467 23.4611 -3.69711e-05C14.5888 -3.69711e-05 6.4752 4.90167 2.4917 12.6768L10.2863 18.6011C12.1401 13.1501 17.3393 9.10193 23.4611 9.10193Z" fill="#EA4335"/>
</g>
<defs>
<clipPath id="clip0">
<rect width="46" height="46" fill="white"/>
</clipPath>
</defs>
</svg>
