<svg width="20" height="22" viewBox="0 0 20 22" fill="none" xmlns="http://www.w3.org/2000/svg">
<path fill-rule="evenodd" clip-rule="evenodd" d="M19.4002 1.36504C19.5118 1.48115 19.6003 1.61909 19.6607 1.77095C19.7211 1.92282 19.7522 2.08562 19.7522 2.25004C19.7522 2.41446 19.7211 2.57726 19.6607 2.72912C19.6003 2.88098 19.5118 3.01892 19.4002 3.13504L2.6294 20.635C2.40447 20.8698 2.09939 21.0016 1.78128 21.0016C1.46317 21.0016 1.15809 20.8698 0.933153 20.635C0.708216 20.4003 0.581848 20.082 0.581848 19.75C0.581848 19.4181 0.708216 19.0998 0.933153 18.865L17.704 1.36504C17.8153 1.24863 17.9475 1.15627 18.093 1.09326C18.2385 1.03024 18.3945 0.997803 18.5521 0.997803C18.7097 0.997803 18.8657 1.03024 19.0112 1.09326C19.1568 1.15627 19.289 1.24863 19.4002 1.36504Z" fill="#7D7D7D"/>
<path fill-rule="evenodd" clip-rule="evenodd" d="M0.93314 1.36504C0.821582 1.48115 0.733073 1.61909 0.672683 1.77095C0.612292 1.92282 0.581207 2.08562 0.581207 2.25004C0.581207 2.41446 0.612292 2.57726 0.672683 2.72912C0.733073 2.88098 0.821582 3.01892 0.93314 3.13504L17.704 20.635C17.9289 20.8698 18.234 21.0016 18.5521 21.0016C18.8702 21.0016 19.1753 20.8698 19.4002 20.635C19.6252 20.4003 19.7515 20.082 19.7515 19.75C19.7515 19.4181 19.6252 19.0998 19.4002 18.865L2.62939 1.36504C2.51811 1.24863 2.38592 1.15627 2.24039 1.09326C2.09485 1.03024 1.93883 0.997803 1.78127 0.997803C1.6237 0.997803 1.46768 1.03024 1.32214 1.09326C1.17661 1.15627 1.04442 1.24863 0.93314 1.36504Z" fill="#7D7D7D"/>
</svg>
