<svg width="34" height="34" viewBox="0 0 34 34" fill="none" xmlns="http://www.w3.org/2000/svg">
<path d="M31.6281 27.933L29.6284 20.8894V5.55287C29.6284 4.96783 29.1558 4.49518 28.5707 4.49518H5.30151C4.71648 4.49518 4.24382 4.96783 4.24382 5.55287V20.8894L2.24412 27.933C1.99622 28.6238 2.50524 29.3509 3.23901 29.3509H30.6332C31.367 29.3509 31.876 28.6238 31.6281 27.933ZM6.62363 6.87499H27.2486V19.9309H6.62363V6.87499ZM14.1696 26.9711L14.4373 25.7482H19.4052L19.6729 26.9711H14.1696ZM21.5734 26.9711L20.9421 24.1055C20.9157 23.9832 20.8066 23.8972 20.6843 23.8972H13.1615C13.0359 23.8972 12.9301 23.9832 12.9037 24.1055L12.2724 26.9711H4.99082L6.38895 22.0463H27.4833L28.8814 26.9711H21.5734Z" fill="#161616"/>
</svg>
