<svg width="34" height="34" viewBox="0 0 34 34" fill="none" xmlns="http://www.w3.org/2000/svg">
<path d="M26.4424 2.11539H7.40396C6.23719 2.11539 5.28857 3.064 5.28857 4.23077V29.6154C5.28857 30.7822 6.23719 31.7308 7.40396 31.7308H26.4424C27.6092 31.7308 28.5578 30.7822 28.5578 29.6154V4.23077C28.5578 3.064 27.6092 2.11539 26.4424 2.11539ZM26.178 29.351H7.66838V4.49519H26.178V29.351ZM15.6011 25.9135C15.6011 26.2641 15.7404 26.6004 15.9883 26.8483C16.2363 27.0963 16.5725 27.2356 16.9232 27.2356C17.2738 27.2356 17.6101 27.0963 17.8581 26.8483C18.106 26.6004 18.2453 26.2641 18.2453 25.9135C18.2453 25.5628 18.106 25.2265 17.8581 24.9786C17.6101 24.7306 17.2738 24.5913 16.9232 24.5913C16.5725 24.5913 16.2363 24.7306 15.9883 24.9786C15.7404 25.2265 15.6011 25.5628 15.6011 25.9135Z" fill="#161616"/>
</svg>
