<svg width="34" height="34" viewBox="0 0 34 34" fill="none" xmlns="http://www.w3.org/2000/svg">
<g clip-path="url(#clip0)">
<path fill-rule="evenodd" clip-rule="evenodd" d="M23.2693 2.11538H10.577C10.0159 2.11538 9.47787 2.33825 9.08116 2.73497C8.68445 3.13168 8.46158 3.66973 8.46158 4.23077V29.6154C8.46158 30.1764 8.68445 30.7145 9.08116 31.1112C9.47787 31.5079 10.0159 31.7308 10.577 31.7308H23.2693C23.8303 31.7308 24.3684 31.5079 24.7651 31.1112C25.1618 30.7145 25.3847 30.1764 25.3847 29.6154V4.23077C25.3847 3.66973 25.1618 3.13168 24.7651 2.73497C24.3684 2.33825 23.8303 2.11538 23.2693 2.11538ZM10.577 0C9.45489 0 8.37878 0.445741 7.58535 1.23916C6.79193 2.03259 6.34619 3.1087 6.34619 4.23077V29.6154C6.34619 30.7375 6.79193 31.8136 7.58535 32.607C8.37878 33.4004 9.45489 33.8462 10.577 33.8462H23.2693C24.3913 33.8462 25.4674 33.4004 26.2609 32.607C27.0543 31.8136 27.5 30.7375 27.5 29.6154V4.23077C27.5 3.1087 27.0543 2.03259 26.2609 1.23916C25.4674 0.445741 24.3913 0 23.2693 0L10.577 0Z" fill="#161616"/>
<path fill-rule="evenodd" clip-rule="evenodd" d="M16.9231 29.6154C17.4842 29.6154 18.0222 29.3925 18.4189 28.9958C18.8156 28.5991 19.0385 28.0611 19.0385 27.5C19.0385 26.939 18.8156 26.4009 18.4189 26.0042C18.0222 25.6075 17.4842 25.3846 16.9231 25.3846C16.3621 25.3846 15.824 25.6075 15.4273 26.0042C15.0306 26.4009 14.8077 26.939 14.8077 27.5C14.8077 28.0611 15.0306 28.5991 15.4273 28.9958C15.824 29.3925 16.3621 29.6154 16.9231 29.6154Z" fill="#161616"/>
</g>
<defs>
<clipPath id="clip0">
<rect width="33.8462" height="33.8462" fill="white"/>
</clipPath>
</defs>
</svg>
