<svg width="72" height="17" viewBox="0 0 72 17" fill="none" xmlns="http://www.w3.org/2000/svg">
<path d="M9.18797 7.222H3.13997V13H1.64597V0.399999H3.13997V5.89H9.18797V0.399999H10.682V13H9.18797V7.222ZM13.4517 4.666C13.9077 4.39 14.4357 4.186 15.0357 4.054C15.6477 3.922 16.2837 3.856 16.9437 3.856C17.5677 3.856 18.0657 3.94 18.4377 4.108C18.8217 4.276 19.1097 4.498 19.3017 4.774C19.5057 5.038 19.6377 5.332 19.6977 5.656C19.7697 5.98 19.8057 6.304 19.8057 6.628C19.8057 7.348 19.7877 8.05 19.7517 8.734C19.7157 9.418 19.6977 10.066 19.6977 10.678C19.6977 11.122 19.7157 11.542 19.7517 11.938C19.7877 12.334 19.8537 12.7 19.9497 13.036H18.8877L18.5097 11.776H18.4197C18.3117 11.944 18.1737 12.112 18.0057 12.28C17.8497 12.436 17.6577 12.58 17.4297 12.712C17.2017 12.832 16.9377 12.934 16.6377 13.018C16.3377 13.102 15.9957 13.144 15.6117 13.144C15.2277 13.144 14.8677 13.084 14.5317 12.964C14.2077 12.844 13.9257 12.676 13.6857 12.46C13.4457 12.232 13.2537 11.962 13.1097 11.65C12.9777 11.338 12.9117 10.984 12.9117 10.588C12.9117 10.06 13.0197 9.622 13.2357 9.274C13.4517 8.914 13.7517 8.632 14.1357 8.428C14.5317 8.212 14.9997 8.062 15.5397 7.978C16.0917 7.882 16.6977 7.834 17.3577 7.834C17.5257 7.834 17.6877 7.834 17.8437 7.834C18.0117 7.834 18.1797 7.846 18.3477 7.87C18.3837 7.51 18.4017 7.186 18.4017 6.898C18.4017 6.238 18.2697 5.776 18.0057 5.512C17.7417 5.248 17.2617 5.116 16.5657 5.116C16.3617 5.116 16.1397 5.134 15.8997 5.17C15.6717 5.194 15.4317 5.236 15.1797 5.296C14.9397 5.344 14.7057 5.41 14.4777 5.494C14.2617 5.566 14.0697 5.65 13.9017 5.746L13.4517 4.666ZM16.0077 11.884C16.3437 11.884 16.6437 11.842 16.9077 11.758C17.1717 11.662 17.3997 11.548 17.5917 11.416C17.7837 11.272 17.9397 11.116 18.0597 10.948C18.1917 10.78 18.2877 10.618 18.3477 10.462V8.968C18.1797 8.956 18.0057 8.95 17.8257 8.95C17.6577 8.938 17.4897 8.932 17.3217 8.932C16.9497 8.932 16.5837 8.956 16.2237 9.004C15.8757 9.04 15.5637 9.118 15.2877 9.238C15.0237 9.346 14.8077 9.502 14.6397 9.706C14.4837 9.898 14.4057 10.144 14.4057 10.444C14.4057 10.864 14.5557 11.212 14.8557 11.488C15.1557 11.752 15.5397 11.884 16.0077 11.884ZM22.5254 4.018C22.9454 3.994 23.3834 3.964 23.8394 3.928C24.3074 3.892 24.8834 3.874 25.5674 3.874C26.7554 3.874 27.6074 4.06 28.1234 4.432C28.6394 4.792 28.8974 5.344 28.8974 6.088C28.8974 6.508 28.7714 6.922 28.5194 7.33C28.2794 7.726 27.8774 8.02 27.3134 8.212V8.284C28.0214 8.416 28.5194 8.662 28.8074 9.022C29.0954 9.382 29.2394 9.862 29.2394 10.462C29.2394 11.398 28.9034 12.076 28.2314 12.496C27.5594 12.916 26.5514 13.126 25.2074 13.126C24.7034 13.126 24.2354 13.108 23.8034 13.072C23.3714 13.048 22.9454 13.018 22.5254 12.982V4.018ZM23.9654 11.794C24.1934 11.818 24.4154 11.836 24.6314 11.848C24.8594 11.86 25.1234 11.866 25.4234 11.866C26.2274 11.866 26.8214 11.752 27.2054 11.524C27.6014 11.296 27.7994 10.906 27.7994 10.354C27.7994 9.922 27.6314 9.574 27.2954 9.31C26.9714 9.034 26.3894 8.896 25.5494 8.896H23.9654V11.794ZM25.7294 7.798C25.9454 7.798 26.1554 7.762 26.3594 7.69C26.5634 7.618 26.7434 7.522 26.8994 7.402C27.0674 7.27 27.1994 7.12 27.2954 6.952C27.4034 6.784 27.4574 6.604 27.4574 6.412C27.4574 5.932 27.3134 5.602 27.0254 5.422C26.7374 5.23 26.2334 5.134 25.5134 5.134C25.1294 5.134 24.8234 5.14 24.5954 5.152C24.3794 5.164 24.1694 5.176 23.9654 5.188V7.798H25.7294ZM38.0778 12.28C37.7178 12.568 37.2618 12.796 36.7098 12.964C36.1698 13.132 35.5938 13.216 34.9818 13.216C34.2978 13.216 33.7038 13.108 33.1998 12.892C32.6958 12.664 32.2818 12.346 31.9578 11.938C31.6338 11.518 31.3938 11.02 31.2378 10.444C31.0818 9.868 31.0038 9.22 31.0038 8.5C31.0038 6.964 31.3458 5.794 32.0298 4.99C32.7138 4.186 33.6918 3.784 34.9638 3.784C35.3718 3.784 35.7798 3.832 36.1878 3.928C36.5958 4.012 36.9618 4.18 37.2858 4.432C37.6098 4.684 37.8738 5.044 38.0778 5.512C38.2818 5.968 38.3838 6.574 38.3838 7.33C38.3838 7.726 38.3478 8.164 38.2758 8.644H32.4978C32.4978 9.172 32.5518 9.64 32.6598 10.048C32.7678 10.456 32.9358 10.804 33.1638 11.092C33.3918 11.368 33.6858 11.584 34.0458 11.74C34.4178 11.884 34.8678 11.956 35.3958 11.956C35.8038 11.956 36.2118 11.884 36.6198 11.74C37.0278 11.596 37.3338 11.428 37.5378 11.236L38.0778 12.28ZM34.9818 5.044C34.2738 5.044 33.7038 5.23 33.2718 5.602C32.8518 5.974 32.5998 6.61 32.5158 7.51H36.9798C36.9798 6.598 36.8058 5.962 36.4578 5.602C36.1098 5.23 35.6178 5.044 34.9818 5.044ZM40.6485 4H41.6385L41.9085 5.08H41.9805C42.2565 4.66 42.6105 4.342 43.0425 4.126C43.4865 3.898 43.9905 3.784 44.5545 3.784C45.7545 3.784 46.6485 4.138 47.2365 4.846C47.8245 5.554 48.1185 6.712 48.1185 8.32C48.1185 9.076 48.0165 9.76 47.8125 10.372C47.6205 10.972 47.3445 11.482 46.9845 11.902C46.6245 12.322 46.1865 12.646 45.6705 12.874C45.1665 13.102 44.6025 13.216 43.9785 13.216C43.5345 13.216 43.1805 13.186 42.9165 13.126C42.6645 13.078 42.3885 12.988 42.0885 12.856V16.6H40.6485V4ZM44.2845 5.044C43.6725 5.044 43.1865 5.206 42.8265 5.53C42.4785 5.842 42.2325 6.322 42.0885 6.97V11.434C42.3045 11.602 42.5505 11.734 42.8265 11.83C43.1025 11.914 43.4685 11.956 43.9245 11.956C44.7525 11.956 45.4065 11.65 45.8865 11.038C46.3785 10.414 46.6245 9.502 46.6245 8.302C46.6245 7.81 46.5825 7.366 46.4985 6.97C46.4145 6.562 46.2765 6.22 46.0845 5.944C45.9045 5.656 45.6645 5.434 45.3645 5.278C45.0765 5.122 44.7165 5.044 44.2845 5.044ZM52.3404 8.392L49.3164 4H51.0804L52.7904 6.484L53.2944 7.51L53.8164 6.484L55.5624 4H57.1824L54.1404 8.32L57.3624 13H55.6524L53.7444 10.264L53.2044 9.184L52.6464 10.264L50.7024 13H49.1004L52.3404 8.392ZM66.2887 13V2.506C65.9047 2.83 65.3287 3.178 64.5607 3.55V2.92C65.4487 2.164 66.0967 1.372 66.5047 0.543999H66.8287C67.2487 1.372 67.8967 2.164 68.7727 2.92V3.55C68.0047 3.178 67.4287 2.83 67.0447 2.506V13H66.2887Z" fill="#0044BB"/>
<path d="M0.115967 14.8H62.1739V15.7H0.115967V14.8ZM62.1667 15.25H71.1667V16.15H62.1667V15.25Z" fill="#0044BB"/>
</svg>
