<svg width="24" height="25" viewBox="0 0 24 25" fill="none" xmlns="http://www.w3.org/2000/svg">
<path fill-rule="evenodd" clip-rule="evenodd" d="M22.1204 21.3952C22.1204 21.2274 22.0537 21.0666 21.9351 20.9479C21.8165 20.8293 21.6556 20.7627 21.4878 20.7627H2.51211C2.34435 20.7627 2.18347 20.8293 2.06485 20.9479C1.94623 21.0666 1.87959 21.2274 1.87959 21.3952C1.87959 21.563 1.94623 21.7238 2.06485 21.8425C2.18347 21.9611 2.34435 22.0277 2.51211 22.0277H21.4878C21.6556 22.0277 21.8165 21.9611 21.9351 21.8425C22.0537 21.7238 22.1204 21.563 22.1204 21.3952ZM18.1734 3.27338C18.114 3.20395 18.0403 3.14821 17.9573 3.10999C17.8743 3.07177 17.7841 3.05199 17.6927 3.05199H6.30725C6.21589 3.05199 6.12561 3.07177 6.04263 3.10999C5.95964 3.14821 5.88592 3.20395 5.82654 3.27338L2.33627 7.34557C2.04158 7.68945 1.8796 8.12738 1.87959 8.58026V8.74471H3.14463V8.58026C3.14462 8.4295 3.19846 8.28369 3.29644 8.16912L6.59822 4.31704H17.4017L20.7035 8.16912C20.8015 8.28369 20.8553 8.4295 20.8553 8.58026V8.74471H22.1204V8.58026C22.1203 8.12738 21.9584 7.68945 21.6637 7.34557L18.1721 3.27211L18.1734 3.27338Z" fill="#161616"/>
<path d="M19.1159 10.4842C18.1544 10.4842 17.3764 9.70488 17.3764 8.74471H16.1114C16.1114 9.20604 15.9281 9.64848 15.6019 9.97468C15.2757 10.3009 14.8333 10.4842 14.3719 10.4842C13.9106 10.4842 13.4682 10.3009 13.142 9.97468C12.8158 9.64848 12.6325 9.20604 12.6325 8.74471H11.3674C11.3674 9.20604 11.1842 9.64848 10.858 9.97468C10.5318 10.3009 10.0893 10.4842 9.62801 10.4842C9.16668 10.4842 8.72425 10.3009 8.39804 9.97468C8.07183 9.64848 7.88857 9.20604 7.88857 8.74471H6.62352C6.62352 9.20604 6.44026 9.64848 6.11405 9.97468C5.78784 10.3009 5.3454 10.4842 4.88408 10.4842C4.42275 10.4842 3.98031 10.3009 3.6541 9.97468C3.3279 9.64848 3.14463 9.20604 3.14463 8.74471H1.87959C1.87952 9.37088 2.07509 9.98143 2.43897 10.491C2.80285 11.0006 3.31685 11.3838 3.90913 11.587C4.50142 11.7901 5.14239 11.8032 5.74246 11.6243C6.34253 11.4454 6.87171 11.0835 7.25604 10.5892C7.5367 10.9507 7.89637 11.2432 8.30751 11.4442C8.71864 11.6453 9.17034 11.7496 9.62801 11.7492C10.0857 11.7497 10.5374 11.6454 10.9486 11.4444C11.3597 11.2433 11.7194 10.9507 12 10.5892C12.2806 10.9507 12.6402 11.2433 13.0514 11.4444C13.4625 11.6454 13.9143 11.7497 14.3719 11.7492C14.8296 11.7497 15.2814 11.6454 15.6925 11.4444C16.1037 11.2433 16.4633 10.9507 16.7439 10.5892C17.1282 11.0835 17.6574 11.4454 18.2575 11.6243C18.8576 11.8032 19.4985 11.7901 20.0908 11.587C20.6831 11.3838 21.1971 11.0006 21.561 10.491C21.9249 9.98143 22.1204 9.37088 22.1204 8.74471H20.8553C20.8553 9.70615 20.076 10.4842 19.1159 10.4842Z" fill="#161616"/>
<path d="M16.1114 8.74471C16.1114 8.91247 16.1781 9.07335 16.2967 9.19197C16.4153 9.31059 16.5762 9.37723 16.7439 9.37723C16.9117 9.37723 17.0726 9.31059 17.1912 9.19197C17.3098 9.07335 17.3765 8.91247 17.3765 8.74471C17.3765 8.57695 17.3098 8.41607 17.1912 8.29745C17.0726 8.17883 16.9117 8.11219 16.7439 8.11219C16.5762 8.11219 16.4153 8.17883 16.2967 8.29745C16.1781 8.41607 16.1114 8.57695 16.1114 8.74471ZM11.3675 8.74471C11.3675 8.91247 11.4341 9.07335 11.5527 9.19197C11.6714 9.31059 11.8323 9.37723 12 9.37723C12.1678 9.37723 12.3287 9.31059 12.4473 9.19197C12.5659 9.07335 12.6325 8.91247 12.6325 8.74471C12.6325 8.57695 12.5659 8.41607 12.4473 8.29745C12.3287 8.17883 12.1678 8.11219 12 8.11219C11.8323 8.11219 11.6714 8.17883 11.5527 8.29745C11.4341 8.41607 11.3675 8.57695 11.3675 8.74471ZM6.62355 8.74471C6.62355 8.91247 6.6902 9.07335 6.80882 9.19197C6.92744 9.31059 7.08832 9.37723 7.25608 9.37723C7.42383 9.37723 7.58472 9.31059 7.70334 9.19197C7.82196 9.07335 7.8886 8.91247 7.8886 8.74471C7.8886 8.57695 7.82196 8.41607 7.70334 8.29745C7.58472 8.17883 7.42383 8.11219 7.25608 8.11219C7.08832 8.11219 6.92744 8.17883 6.80882 8.29745C6.6902 8.41607 6.62355 8.57695 6.62355 8.74471Z" fill="#161616"/>
<path fill-rule="evenodd" clip-rule="evenodd" d="M19.5902 11.7125V10.6423H20.8552V11.1951C20.4871 11.457 20.0557 11.6379 19.5902 11.7125ZM20.8552 12.6449C20.4618 12.822 20.0367 12.9384 19.5902 12.9877V20.7627H20.8552V12.6449ZM4.4096 12.9877C3.97277 12.94 3.546 12.8248 3.14455 12.6461V20.7627H4.4096V12.9877ZM3.14455 11.1951C3.51268 11.457 3.94406 11.6379 4.4096 11.7125V10.6423H3.14455V11.1951ZM18.3251 13.8049C18.3251 13.6372 18.2585 13.4763 18.1399 13.3577C18.0212 13.239 17.8604 13.1724 17.6926 13.1724H12.6324C12.4647 13.1724 12.3038 13.239 12.1851 13.3577C12.0665 13.4763 11.9999 13.6372 11.9999 13.8049V20.7627H13.2649V14.4374H17.0601V20.7627H18.3251V13.8049ZM10.7348 13.8049C10.7348 13.6372 10.6682 13.4763 10.5496 13.3577C10.431 13.239 10.2701 13.1724 10.1023 13.1724H6.30717C6.13941 13.1724 5.97853 13.239 5.85991 13.3577C5.74128 13.4763 5.67464 13.6372 5.67464 13.8049V18.8651C5.67464 19.0329 5.74128 19.1938 5.85991 19.3124C5.97853 19.431 6.13941 19.4976 6.30717 19.4976H10.1023C10.2701 19.4976 10.431 19.431 10.5496 19.3124C10.6682 19.1938 10.7348 19.0329 10.7348 18.8651V13.8049ZM9.46979 14.4374V18.2326H6.93969V14.4374H9.46979Z" fill="#161616"/>
</svg>
