<svg width="34" height="34" viewBox="0 0 34 34" fill="none" xmlns="http://www.w3.org/2000/svg">
<g clip-path="url(#clip0)">
<path fill-rule="evenodd" clip-rule="evenodd" d="M18.6936 3.4396C18.1732 1.67325 15.6728 1.67325 15.1524 3.4396L14.9536 4.1144C14.7863 4.68121 14.4944 5.20343 14.0992 5.64281C13.704 6.08219 13.2156 6.4276 12.6696 6.65375C12.1236 6.87989 11.5339 6.98103 10.9438 6.94976C10.3537 6.9185 9.77799 6.75562 9.25896 6.47306L8.64126 6.13459C7.02511 5.25671 5.25665 7.02306 6.13665 8.64133L6.473 9.25902C6.75556 9.77805 6.91844 10.3537 6.9497 10.9439C6.98097 11.534 6.87983 12.1236 6.65368 12.6696C6.42754 13.2156 6.08213 13.7041 5.64275 14.0993C5.20337 14.4945 4.68115 14.7864 4.11434 14.9536L3.43953 15.1525C1.67319 15.6729 1.67319 18.1732 3.43953 18.6936L4.11434 18.8925C4.68145 19.0596 5.20395 19.3516 5.64355 19.7469C6.08315 20.1423 6.42871 20.631 6.65488 21.1773C6.88105 21.7235 6.9821 22.3135 6.95063 22.9038C6.91916 23.4942 6.75596 24.0701 6.473 24.5892L6.13453 25.2048C5.25665 26.8209 7.023 28.5894 8.64126 27.7094L9.25896 27.3731C9.77813 27.0905 10.3539 26.9277 10.9442 26.8966C11.5344 26.8655 12.1242 26.9668 12.6702 27.1931C13.2162 27.4195 13.7047 27.7651 14.0998 28.2048C14.4948 28.6444 14.7866 29.1668 14.9536 29.7338L15.1524 30.4065C15.6728 32.1729 18.1732 32.1729 18.6936 30.4065L18.8924 29.7317C19.0596 29.1646 19.3515 28.6421 19.7469 28.2025C20.1422 27.7629 20.6309 27.4173 21.1772 27.1912C21.7235 26.965 22.3134 26.864 22.9038 26.8954C23.4942 26.9269 24.07 27.0901 24.5891 27.3731L25.2047 27.7115C26.8209 28.5894 28.5893 26.8231 27.7093 25.2048L27.373 24.5892C27.0901 24.07 26.9269 23.494 26.8956 22.9035C26.8643 22.3129 26.9655 21.7229 27.1919 21.1766C27.4183 20.6303 27.7641 20.1417 28.2039 19.7464C28.6437 19.3512 29.1665 19.0594 29.7338 18.8925L30.4065 18.6936C32.1728 18.1732 32.1728 15.6729 30.4065 15.1525L29.7316 14.9536C29.1648 14.7864 28.6426 14.4945 28.2032 14.0993C27.7639 13.7041 27.4184 13.2156 27.1923 12.6696C26.9662 12.1236 26.865 11.534 26.8963 10.9439C26.9276 10.3537 27.0904 9.77805 27.373 9.25902L27.7115 8.64133C28.5893 7.02517 26.823 5.25671 25.2047 6.13671L24.5891 6.47306C24.07 6.75642 23.4939 6.91993 22.9033 6.95161C22.3126 6.98329 21.7224 6.88233 21.1759 6.65613C20.6293 6.42993 20.1404 6.08424 19.7449 5.64441C19.3494 5.20459 19.0574 4.6818 18.8903 4.1144L18.6936 3.4396ZM13.1238 2.84094C14.2386 -0.945597 19.6074 -0.945597 20.7222 2.84094L20.9211 3.51575C20.9989 3.78007 21.1349 4.02362 21.3192 4.22855C21.5034 4.43347 21.7311 4.59458 21.9857 4.70005C22.2402 4.80553 22.5152 4.8527 22.7903 4.83811C23.0655 4.82353 23.3339 4.74755 23.5759 4.61575L24.1936 4.27729C27.6628 2.39036 31.4578 6.18325 29.5667 9.65248L29.2303 10.2702C29.0985 10.5122 29.0225 10.7806 29.0079 11.0557C28.9934 11.3309 29.0405 11.6058 29.146 11.8604C29.2515 12.115 29.4126 12.3427 29.6175 12.5269C29.8224 12.7111 30.066 12.8471 30.3303 12.925L31.0051 13.1238C34.7916 14.2386 34.7916 19.6075 31.0051 20.7223L30.3303 20.9211C30.066 20.999 29.8224 21.135 29.6175 21.3192C29.4126 21.5034 29.2515 21.7312 29.146 21.9857C29.0405 22.2403 28.9934 22.5152 29.0079 22.7904C29.0225 23.0655 29.0985 23.334 29.2303 23.5759L29.5688 24.1936C31.4578 27.6629 27.6607 31.4579 24.1936 29.5667L23.5759 29.2304C23.3339 29.0986 23.0655 29.0226 22.7903 29.008C22.5152 28.9934 22.2402 29.0406 21.9857 29.1461C21.7311 29.2515 21.5034 29.4126 21.3192 29.6176C21.1349 29.8225 20.9989 30.066 20.9211 30.3304L20.7222 31.0052C19.6074 34.7917 14.2386 34.7917 13.1238 31.0052L12.9249 30.3304C12.8471 30.066 12.711 29.8225 12.5268 29.6176C12.3426 29.4126 12.1149 29.2515 11.8603 29.1461C11.6058 29.0406 11.3308 28.9934 11.0557 29.008C10.7805 29.0226 10.5121 29.0986 10.2701 29.2304L9.65242 29.5688C6.18319 31.4579 2.3903 27.6607 4.27934 24.1936L4.61569 23.5759C4.74749 23.334 4.82347 23.0655 4.83805 22.7904C4.85264 22.5152 4.80547 22.2403 4.69999 21.9857C4.59451 21.7312 4.43341 21.5034 4.22848 21.3192C4.02356 21.135 3.78001 20.999 3.51569 20.9211L2.84088 20.7223C-0.945658 19.6075 -0.945658 14.2386 2.84088 13.1238L3.51569 12.925C3.78001 12.8471 4.02356 12.7111 4.22848 12.5269C4.43341 12.3427 4.59451 12.115 4.69999 11.8604C4.80547 11.6058 4.85264 11.3309 4.83805 11.0557C4.82347 10.7806 4.74749 10.5122 4.61569 10.2702L4.27723 9.65248C2.3903 6.18325 6.1853 2.39036 9.65242 4.2794L10.2701 4.61575C10.5121 4.74755 10.7805 4.82353 11.0557 4.83811C11.3308 4.8527 11.6058 4.80553 11.8603 4.70005C12.1149 4.59458 12.3426 4.43347 12.5268 4.22855C12.711 4.02362 12.8471 3.78007 12.9249 3.51575L13.1238 2.84094Z" fill="#161616"/>
<path fill-rule="evenodd" clip-rule="evenodd" d="M16.9232 12.1717C15.6631 12.1717 14.4546 12.6723 13.5636 13.5633C12.6726 14.4543 12.172 15.6628 12.172 16.9229C12.172 18.183 12.6726 19.3914 13.5636 20.2824C14.4546 21.1735 15.6631 21.674 16.9232 21.674C18.1833 21.674 19.3917 21.1735 20.2828 20.2824C21.1738 19.3914 21.6743 18.183 21.6743 16.9229C21.6743 15.6628 21.1738 14.4543 20.2828 13.5633C19.3917 12.6723 18.1833 12.1717 16.9232 12.1717ZM10.0566 16.9229C10.0566 16.0211 10.2342 15.1283 10.5793 14.2952C10.9244 13.4621 11.4302 12.7051 12.0678 12.0675C12.7054 11.4299 13.4624 10.9241 14.2955 10.579C15.1286 10.2339 16.0215 10.0563 16.9232 10.0563C17.8249 10.0563 18.7178 10.2339 19.5509 10.579C20.384 10.9241 21.1409 11.4299 21.7786 12.0675C22.4162 12.7051 22.922 13.4621 23.267 14.2952C23.6121 15.1283 23.7897 16.0211 23.7897 16.9229C23.7897 18.744 23.0663 20.4905 21.7786 21.7782C20.4908 23.066 18.7443 23.7894 16.9232 23.7894C15.1021 23.7894 13.3555 23.066 12.0678 21.7782C10.7801 20.4905 10.0566 18.744 10.0566 16.9229Z" fill="#161616"/>
</g>
<defs>
<clipPath id="clip0">
<rect width="33.8462" height="33.8462" fill="white"/>
</clipPath>
</defs>
</svg>
