<svg width="65" height="65" viewBox="0 0 65 65" fill="none" xmlns="http://www.w3.org/2000/svg">
<path d="M55.7573 22.2933C56.0978 21.1505 55.7573 20.3125 54.1467 20.3125H48.8115C47.454 20.3125 46.8337 21.0375 46.4931 21.8337C46.4931 21.8337 43.7805 28.5159 39.9366 32.8486C38.6959 34.1093 38.129 34.5074 37.4527 34.5074C37.1145 34.5074 36.6231 34.1093 36.6231 32.9665V22.2933C36.6231 20.922 36.2314 20.3125 35.1001 20.3125H26.7166C25.87 20.3125 25.3591 20.9466 25.3591 21.5511C25.3591 22.8487 27.2811 23.1485 27.4781 26.8054V34.7384C27.4781 36.4759 27.1691 36.793 26.488 36.793C24.6804 36.793 20.2818 30.0863 17.6714 22.4088C17.1629 20.9171 16.6496 20.315 15.2872 20.315H9.95448C8.4291 20.315 8.125 21.0399 8.125 21.8362C8.125 23.2665 9.93259 30.3443 16.545 39.7052C20.9533 46.0973 27.1594 49.5625 32.8133 49.5625C36.2022 49.5625 36.6207 48.7933 36.6207 47.4662V42.6346C36.6207 41.0962 36.9442 40.7865 38.0171 40.7865C38.8053 40.7865 40.1629 41.1896 43.328 44.2689C46.9431 47.9208 47.5416 49.56 49.573 49.56H54.9058C56.4287 49.56 57.1902 48.7908 56.7523 47.272C56.273 45.7606 54.5457 43.5611 52.254 40.9585C51.0084 39.4742 49.1473 37.8768 48.5804 37.078C47.7898 36.0483 48.0184 35.5937 48.5804 34.6795C48.5829 34.6819 55.0809 25.4365 55.7573 22.2933Z" fill="#3757C5"/>
</svg>
